<svg width="659" height="440" fill="none" xmlns="http://www.w3.org/2000/svg">
  <path
    d="M396.977 210.195c-3.433-2.301-12.452-3.283-19.008-1.524-.352-6.501-3.723-11.98-9.883-16.761l-2.28-1.523-1.52 2.286c-2.987 4.513-4.247 10.529-3.801 15.998.352 3.37 1.528 7.156 3.801 9.904-8.533 4.928-16.401 3.809-51.24 3.809h-53.789c-.156 7.832 1.108 22.894 10.73 35.156a43.33 43.33 0 003.494 3.927c7.824 7.799 19.645 13.518 37.321 13.533 26.967.025 50.07-14.486 64.125-49.567 4.624.074 16.833.825 22.808-10.667.146-.193 1.52-3.046 1.52-3.046l-2.278-1.523v-.002zm-102.616-7.161h-15.126v15.056h15.126v-15.056zm19.538 0h-15.125v15.056h15.125v-15.056zm19.541 0h-15.125v15.056h15.125v-15.056zm19.542 0h-15.126v15.056h15.126v-15.056zm-78.163 0h-15.125v15.056h15.125v-15.056zm19.542-19.016h-15.126v15.056h15.126v-15.056zm19.538 0h-15.125v15.056h15.125v-15.056zm19.541 0h-15.125v15.056h15.125v-15.056zm0-19.018h-15.125v15.056h15.125V165z"
    fill="#1D63ED" />
</svg>