<?xml version="1.0" encoding="UTF-8" standalone="no"?>
<svg
   width="659"
   height="440"
   fill="none"
   version="1.1"
   id="svg4"
   sodipodi:docname="docker.svg"
   inkscape:version="1.2.2 (b0a8486541, 2022-12-01)"
   xmlns:inkscape="http://www.inkscape.org/namespaces/inkscape"
   xmlns:sodipodi="http://sodipodi.sourceforge.net/DTD/sodipodi-0.dtd"
   xmlns="http://www.w3.org/2000/svg"
   xmlns:svg="http://www.w3.org/2000/svg">
  <defs
     id="defs8" />
  <sodipodi:namedview
     id="namedview6"
     pagecolor="#ffffff"
     bordercolor="#000000"
     borderopacity="0.25"
     inkscape:showpageshadow="2"
     inkscape:pageopacity="0.0"
     inkscape:pagecheckerboard="0"
     inkscape:deskcolor="#d1d1d1"
     showgrid="false"
     inkscape:zoom="1.7909091"
     inkscape:cx="330"
     inkscape:cy="220"
     inkscape:window-width="1854"
     inkscape:window-height="1011"
     inkscape:window-x="0"
     inkscape:window-y="0"
     inkscape:window-maximized="1"
     inkscape:current-layer="svg4" />
  <path
     d="m 428.81538,205.58567 c -5.04685,-3.3827 -18.30568,-4.82634 -27.94365,-2.24043 -0.51747,-9.55712 -5.47318,-17.61179 -14.52899,-24.64033 l -3.35182,-2.23896 -2.23455,3.36064 c -4.39119,6.63456 -6.24351,15.47868 -5.58785,23.51865 0.51748,4.95423 2.24631,10.52003 5.58785,14.55986 -12.54436,7.24465 -24.1111,5.59961 -75.32788,5.59961 h -79.07517 c -0.22933,11.51382 1.62887,33.65645 15.77417,51.6828 a 63.699396,63.699396 0 0 0 5.13652,5.77308 c 11.50206,11.46531 28.8801,19.8728 54.86557,19.89486 39.64417,0.0367 73.60787,-21.29586 94.27011,-72.86841 6.79774,0.10879 24.74618,1.21283 33.53002,-15.68155 0.21464,-0.28373 2.23455,-4.47792 2.23455,-4.47792 l -3.34888,-2.23896 z m -150.8557,-10.52738 h -22.23672 v 22.13381 h 22.23672 z m 28.7228,0 h -22.23525 v 22.13381 h 22.23525 z m 28.72721,0 h -22.23525 v 22.13381 h 22.23525 z m 28.72868,0 h -22.23672 v 22.13381 h 22.23672 z m -114.90736,0 h -22.23525 v 22.13381 h 22.23525 z m 28.72867,-27.9554 h -22.23672 v 22.13381 h 22.23672 z m 28.7228,0 h -22.23525 v 22.13381 h 22.23525 z m 28.72721,0 h -22.23525 v 22.13381 h 22.23525 z m 0,-27.95835 h -22.23525 v 22.13381 h 22.23525 z"
     fill="#1d63ed"
     id="path2"
     style="stroke-width:1.4701" />
</svg>
