<svg width="88" height="88" fill="rgb(86, 31, 168)" viewBox="0 0 256 256" version="1.1"
   xmlns="http://www.w3.org/2000/svg" xmlns:svg="http://www.w3.org/2000/svg">
   <path d="M232,136v64a8,8,0,0,1-8,8H32a8,8,0,0,1-8-8V136a8,8,0,0,1,8-8H224A8,8,0,0,1,232,136Z" opacity="0.2" />
   <path
      d="m 240,136 v 64 c 0,8.83656 -7.16344,16 -16,16 H 32 c -8.836556,0 -16,-7.16344 -16,-16 v -64 c 0,-8.83656 7.163444,-16 16,-16 h 40 c 4.418281,0 7.999997,3.58172 7.999997,8 0,4.41828 -3.581716,8 -7.999997,8 H 32 v 64 h 192 v -64 h -40 c -4.41828,0 -8,-3.58172 -8,-8 0,-4.41828 3.58172,-8 8,-8 h 40 c 8.83656,0 16,7.16344 16,16 z m -40,32 c 0,-10.6916 -12.92566,-16.04404 -20.48485,-8.48485 C 171.95596,167.07434 177.3084,180 188,180 c 6.62742,0 12,-5.37258 12,-12 z" />
   <path
      d="m 131.29511,12.403193 c -3.12492,-3.1283905 -8.19509,-3.1283905 -11.32,0 L 71.975103,60.403196 c -3.12593,3.125934 -3.12593,8.194065 0,11.319997 3.12594,3.125932 8.19407,3.125937 11.32001,3e-6 L 117.63511,37.373193 V 122.0632 c 0,4.41828 3.58172,7.99999 8,7.99999 4.41827,0 8,-3.58171 8,-7.99999 V 37.373193 l 34.34,34.350003 c 3.12593,3.125934 8.19406,3.125929 11.32,-3e-6 3.12593,-3.125932 3.12593,-8.194063 0,-11.319997 z"
      style="stroke-width:2.90909" />
</svg>