<?xml version="1.0" encoding="UTF-8" standalone="no"?>
<svg
   width="659"
   height="440"
   fill="none"
   version="1.1"
   id="svg6"
   sodipodi:docname="symfony-laravel.svg"
   inkscape:version="1.2.2 (b0a8486541, 2022-12-01)"
   xmlns:inkscape="http://www.inkscape.org/namespaces/inkscape"
   xmlns:sodipodi="http://sodipodi.sourceforge.net/DTD/sodipodi-0.dtd"
   xmlns="http://www.w3.org/2000/svg"
   xmlns:svg="http://www.w3.org/2000/svg">
  <defs
     id="defs10" />
  <sodipodi:namedview
     id="namedview8"
     pagecolor="#ffffff"
     bordercolor="#000000"
     borderopacity="0.25"
     inkscape:showpageshadow="2"
     inkscape:pageopacity="0.0"
     inkscape:pagecheckerboard="0"
     inkscape:deskcolor="#d1d1d1"
     showgrid="false"
     inkscape:zoom="0.89545455"
     inkscape:cx="351.77665"
     inkscape:cy="144.06091"
     inkscape:window-width="1854"
     inkscape:window-height="1011"
     inkscape:window-x="0"
     inkscape:window-y="0"
     inkscape:window-maximized="1"
     inkscape:current-layer="svg6" />
  <path
     d="m 439.41358,196.24879 52.21623,-29.80156 -23.72215,-13.65784 -52.18015,30.04585 z m 54.61746,-60.95641 -23.74853,-13.65784 v 27.04085 l 23.75269,13.66338 z m 2.37069,-31.42968 -23.74159,13.65784 23.74159,13.65783 23.73465,-13.662 z m -73.12216,69.13862 13.77721,-7.93237 v -59.57258 l -23.75131,13.66755 v 59.57258 z m -12.35034,-85.272626 -23.74159,13.663386 23.74159,13.66338 23.72771,-13.66338 z m -26.122,17.771836 v 92.10988 l 52.23567,30.06111 v -27.31011 l -27.31567,-15.45529 c -0.0902,-0.0638 -0.15962,-0.13463 -0.25539,-0.19432 -0.0694,-0.0652 -0.14991,-0.1152 -0.2193,-0.16933 l -0.004,-0.0139 a 1.3047117,1.3047117 0 0 1 -0.19432,-0.24568 l -0.004,-0.004 a 0.97159385,0.97159385 0 0 1 -0.17489,-0.22347 l -0.004,-0.004 h -0.0139 a 2.9286615,2.9286615 0 0 1 -0.12076,-0.27482 l -0.004,-0.0194 c -0.0347,-0.075 -0.075,-0.15962 -0.10965,-0.25401 l -0.004,-0.0139 a 3.3575508,3.3575508 0 0 1 -0.05,-0.34977 v -0.01 a 3.3644907,3.3644907 0 0 1 -0.0403,-0.25539 v -63.69491 l -13.76193,-7.93792 z m 109.22797,92.10571 v -27.06583 l -52.23566,29.821 v 27.30595 z m 28.47325,-48.93085 v -27.04085 l -23.74159,13.662 v 27.04223 z m 4.67198,-31.7739 c 0.0555,0.19016 0.0902,0.4053 0.0902,0.62876 v 32.51231 c 0,0.8786 -0.4733,1.64338 -1.18257,2.05284 l -0.01,0.004 -27.29624,15.719 v 31.15485 c 0,0.87305 -0.4733,1.63783 -1.17701,2.05145 l -0.01,0.004 -56.98814,32.79684 c -0.11937,0.0639 -0.25956,0.12492 -0.40391,0.16379 l -0.0139,0.004 -0.1499,0.0652 c -0.18044,0.0555 -0.38864,0.0847 -0.60517,0.0847 a 2.1652663,2.1652663 0 0 1 -0.62459,-0.0902 l 0.0153,0.004 a 0.72175543,0.72175543 0 0 1 -0.19432,-0.0791 l 0.004,0.004 a 4.0904101,4.0904101 0 0 1 -0.40946,-0.16517 l 0.0181,0.01 -56.97149,-32.79684 a 2.376241,2.376241 0 0 1 -1.19367,-2.05562 v -97.58411 c 0,-0.2193 0.0347,-0.43444 0.0958,-0.63292 l -0.004,0.0139 c 0.018,-0.0749 0.0638,-0.12492 0.0888,-0.19987 a 2.7482226,2.7482226 0 0 1 0.1499,-0.37893 l -0.004,0.0139 a 0.91885019,0.91885019 0 0 1 0.14573,-0.209582 l 0.2082,-0.284538 0.23596,-0.169335 c 0.0888,-0.07495 0.16934,-0.149903 0.25956,-0.215139 h 0.004 L 409.75082,82.92902 a 2.3415412,2.3415412 0 0 1 2.37624,0.0056 l -0.01,-0.0042 28.50379,16.399116 c 0.0958,0.06385 0.17488,0.134636 0.25539,0.208199 l 0.23873,0.170723 c 0.0805,0.09022 0.12492,0.188767 0.20959,0.284538 a 1.0548733,1.0548733 0 0 1 0.15545,0.204034 l 0.004,0.004 c 0.05,0.0999 0.0999,0.21931 0.14435,0.34422 l 0.004,0.0194 0.0805,0.19987 c 0.0555,0.17488 0.0902,0.37892 0.0902,0.58851 v 60.97167 l 23.7402,-13.66338 v -31.15346 -0.01 c 0,-0.21514 0.0305,-0.42473 0.0861,-0.6246 l -0.004,0.0139 c 0.018,-0.0638 0.0638,-0.12492 0.0791,-0.19987 0.05,-0.1499 0.0999,-0.26927 0.15962,-0.38863 l -0.01,0.018 c 0.0444,-0.075 0.1152,-0.12492 0.15962,-0.2082 0.075,-0.0958 0.13463,-0.19015 0.20958,-0.27066 0.0694,-0.0639 0.14435,-0.12492 0.22486,-0.17488 l 0.004,-0.004 c 0.0902,-0.0639 0.16517,-0.14435 0.25956,-0.19848 h 0.004 l 28.49407,-16.404668 a 2.3415412,2.3415412 0 0 1 2.37624,0.0056 l -0.01,-0.0042 28.49407,16.403278 c 0.0999,0.0652 0.16933,0.13463 0.26372,0.19432 0.075,0.0652 0.15962,0.1152 0.2304,0.17488 0.0791,0.0902 0.1388,0.19016 0.21375,0.28038 0.0555,0.0597 0.10549,0.12908 0.14991,0.19848 l 0.004,0.004 c 0.0597,0.11104 0.11104,0.23596 0.1499,0.36505 l 0.004,0.0139 c 0.0402,0.0597 0.0694,0.12492 0.0958,0.19432 v 0.006 z"
     fill="#f5382e"
     id="path2"
     style="stroke-width:1.38799" />
  <path
     d="m 197.88502,177.5378 c -48.02225,0 -86.95242,38.92738 -86.95242,86.94964 0,48.02782 38.93017,86.96076 86.95242,86.96076 48.02782,0 86.95938,-38.93294 86.95938,-86.95937 0,-48.02365 -38.93156,-86.95103 -86.95938,-86.95103 z m 46.89635,50.32551 c -4.02549,0.14178 -6.80413,-2.26295 -6.9334,-5.91869 -0.0417,-1.34136 0.30164,-2.50758 1.22322,-3.87953 0.89656,-1.75698 1.08977,-1.95992 1.06753,-2.72721 -0.0834,-2.30048 -3.56122,-2.38666 -4.51199,-2.34218 -13.05225,0.4323 -16.49393,18.04658 -19.2823,32.37208 l -1.3636,7.55334 c 7.51581,1.09811 12.85069,-0.25576 15.8281,-2.18232 4.18951,-2.71887 -1.17456,-5.51559 -0.5004,-8.60976 0.68945,-3.15256 3.55566,-4.67601 5.83389,-4.73578 3.19148,-0.0834 5.46971,3.229 5.39743,6.58728 -0.1112,5.5545 -7.48106,13.1843 -22.22079,12.87154 a 50.442274,50.442274 0 0 1 -4.98459,-0.35584 l -2.78281,15.34994 c -2.48813,11.61775 -5.79359,27.4959 -17.62818,41.34879 -10.16518,12.09175 -20.48049,13.9641 -25.09812,14.12117 -8.64451,0.29747 -14.37276,-4.31322 -14.58126,-10.46403 -0.19739,-5.959 5.06938,-9.21303 8.52635,-9.32145 4.61207,-0.1529 7.80355,3.19009 7.92726,7.04182 0.11815,3.25542 -1.58462,4.2743 -2.71331,4.88868 -0.75061,0.60744 -1.88069,1.22739 -1.8376,2.56736 0.0264,0.5713 0.63941,1.8932 2.55902,1.83204 3.65574,-0.1251 6.0841,-1.93212 7.77714,-3.14143 8.42071,-7.01263 11.65945,-19.2406 15.90177,-41.49614 l 0.88961,-5.39048 c 1.44979,-7.2392 3.05109,-15.30685 5.50029,-23.34809 -5.93397,-4.46751 -9.4938,-10.00533 -17.47249,-12.17236 -5.47249,-1.48732 -8.80992,-0.22519 -11.15349,2.74111 -2.77864,3.51257 -1.85706,8.08433 0.82567,10.76428 l 4.43415,4.90258 c 5.43218,6.28148 8.4096,11.16739 7.28647,17.7366 -1.77366,10.4974 -14.27685,18.5442 -29.05689,14.00163 -12.61717,-3.88649 -14.97603,-12.81873 -13.45813,-17.74494 1.33441,-4.32851 4.77609,-5.14584 8.14132,-4.11862 3.60431,1.11897 5.01796,5.49891 3.98657,8.85718 -0.11816,0.36002 -0.30164,0.96884 -0.67694,1.76949 -0.41979,0.92853 -1.19264,1.74169 -1.52902,2.82173 -0.81038,2.64381 2.80922,4.52033 5.3321,5.29596 5.64485,1.73752 11.15487,-1.21487 12.55184,-5.78246 1.29688,-4.19924 -1.35804,-7.128 -2.46033,-8.25113 l -5.34461,-5.7227 c -2.44503,-2.72582 -7.82161,-10.31669 -5.20144,-18.84305 1.01194,-3.286 3.14422,-6.77354 6.23422,-9.08236 6.52752,-4.86366 13.62494,-5.66431 20.38458,-3.71829 8.7432,2.51315 12.94522,8.29839 18.39408,12.76034 3.04691,-8.93919 7.27534,-17.6949 13.6291,-25.08283 5.74077,-6.73184 13.45118,-11.60385 22.28473,-11.90687 8.8266,-0.29191 15.49867,3.70995 15.7183,10.04147 0.089,2.69524 -1.45952,7.93282 -6.84305,8.11213 z"
     fill="#000000"
     id="path4"
     style="stroke-width:1.39002" />
</svg>
