<svg width="659" height="440" fill="none" xmlns="http://www.w3.org/2000/svg"><path d="M403.4 185.662l37.62-21.471-17.091-9.84-37.594 21.647zm39.35-43.917l-17.11-9.84v19.482l17.113 9.844zm1.708-22.644l-17.105 9.84 17.105 9.84 17.1-9.843zm-52.682 49.812l9.926-5.715v-42.92l-17.112 9.847v42.92zm-8.898-61.436l-17.105 9.844 17.105 9.844 17.095-9.844zm-18.82 12.804v66.362l37.634 21.658v-19.676l-19.68-11.135c-.065-.046-.115-.097-.184-.14-.05-.047-.108-.083-.158-.122l-.003-.01a.94.94 0 01-.14-.177l-.003-.003a.7.7 0 01-.126-.161l-.003-.003h-.01a2.11 2.11 0 01-.087-.198l-.003-.014c-.025-.054-.054-.115-.079-.183l-.003-.01a2.419 2.419 0 01-.036-.252v-.007a2.424 2.424 0 01-.029-.184v-45.89l-9.915-5.719zm78.695 66.359v-19.5l-37.634 21.485v19.673zm20.514-35.253v-19.482l-17.105 9.843v19.483zm3.366-22.892c.04.137.065.292.065.453v23.424c0 .633-.341 1.184-.852 1.479l-.007.003-19.666 11.325v22.446c0 .629-.341 1.18-.848 1.478l-.007.003-41.058 23.629c-.086.046-.187.09-.291.118l-.01.003-.108.047c-.13.04-.28.061-.436.061a1.56 1.56 0 01-.45-.065l.011.003a.52.52 0 01-.14-.057l.003.003a2.947 2.947 0 01-.295-.119l.013.007-41.046-23.629a1.712 1.712 0 01-.86-1.481V117.32c0-.158.025-.313.069-.456l-.003.01c.013-.054.046-.09.064-.144a1.98 1.98 0 01.108-.273l-.003.01a.662.662 0 01.105-.151l.15-.205.17-.122c.064-.054.122-.108.187-.155h.003l20.528-11.815a1.687 1.687 0 011.712.004l-.007-.003 20.536 11.815c.069.046.126.097.184.15l.172.123c.058.065.09.136.151.205a.76.76 0 01.112.147l.003.003c.036.072.072.158.104.248l.003.014.058.144c.04.126.065.273.065.424v43.928l17.104-9.844v-22.445-.007c0-.155.022-.306.062-.45l-.003.01c.013-.046.046-.09.057-.144.036-.108.072-.194.115-.28l-.007.013c.032-.054.083-.09.115-.15.054-.069.097-.137.151-.195.05-.046.104-.09.162-.126l.003-.003c.065-.046.119-.104.187-.143h.003l20.529-11.819a1.687 1.687 0 011.712.004l-.007-.003 20.529 11.818c.072.047.122.097.19.14.054.047.115.083.166.126.057.065.1.137.154.202.04.043.076.093.108.143l.003.003c.043.08.08.17.108.263l.003.01c.029.043.05.09.069.14v.004z" fill="#f5382e"/><path d="M217.886 181.936c-34.548 0-62.555 28.005-62.555 62.553 0 34.552 28.007 62.561 62.555 62.561 34.552 0 62.56-28.009 62.56-62.56 0-34.549-28.008-62.554-62.56-62.554zm33.738 36.205c-2.896.102-4.895-1.628-4.988-4.258-.03-.965.217-1.804.88-2.791.645-1.264.784-1.41.768-1.962-.06-1.655-2.562-1.717-3.246-1.685-9.39.311-11.866 12.983-13.872 23.289l-.981 5.434c5.407.79 9.245-.184 11.387-1.57 3.014-1.956-.845-3.968-.36-6.194.496-2.268 2.558-3.364 4.197-3.407 2.296-.06 3.935 2.323 3.883 4.739-.08 3.996-5.382 9.485-15.986 9.26a36.289 36.289 0 01-3.586-.256l-2.002 11.043c-1.79 8.358-4.168 19.781-12.682 29.747-7.313 8.699-14.734 10.046-18.056 10.159-6.219.214-10.34-3.103-10.49-7.528-.142-4.287 3.647-6.628 6.134-6.706 3.318-.11 5.614 2.295 5.703 5.066.085 2.342-1.14 3.075-1.952 3.517-.54.437-1.353.883-1.322 1.847.019.411.46 1.362 1.841 1.318 2.63-.09 4.377-1.39 5.595-2.26 6.058-5.045 8.388-13.842 11.44-29.853l.64-3.878c1.043-5.208 2.195-11.012 3.957-16.797-4.269-3.214-6.83-7.198-12.57-8.757-3.937-1.07-6.338-.162-8.024 1.972-1.999 2.527-1.336 5.816.594 7.744l3.19 3.527c3.908 4.519 6.05 8.034 5.242 12.76-1.276 7.552-10.271 13.341-20.904 10.073-9.077-2.796-10.774-9.222-9.682-12.766.96-3.114 3.436-3.702 5.857-2.963 2.593.805 3.61 3.956 2.868 6.372-.085.259-.217.697-.487 1.273-.302.668-.858 1.253-1.1 2.03-.583 1.902 2.021 3.252 3.836 3.81 4.061 1.25 8.025-.874 9.03-4.16.933-3.021-.977-5.128-1.77-5.936l-3.845-4.117c-1.759-1.961-5.627-7.422-3.742-13.556.728-2.364 2.262-4.873 4.485-6.534 4.696-3.499 9.802-4.075 14.665-2.675 6.29 1.808 9.313 5.97 13.233 9.18 2.192-6.431 5.234-12.73 9.805-18.045 4.13-4.843 9.677-8.348 16.032-8.566 6.35-.21 11.15 2.669 11.308 7.224.064 1.939-1.05 5.707-4.923 5.836z" fill="#000"/></svg>